<?xml version="1.0" encoding="utf-8"?>
<!-- Generator: Adobe Illustrator 27.0.0, SVG Export Plug-In . SVG Version: 6.00 Build 0)  -->
<svg version="1.1" id="katman_1" xmlns="http://www.w3.org/2000/svg" xmlns:xlink="http://www.w3.org/1999/xlink" x="0px" y="0px"
	 viewBox="0 0 1604.78 1044" style="enable-background:new 0 0 1604.78 1044;" xml:space="preserve">
<style type="text/css">
	.st0{fill-rule:evenodd;clip-rule:evenodd;fill:url(#SVGID_1_);}
	.st1{fill:url(#SVGID_00000177450802680371035940000016922644127738999454_);}
	.st2{fill:url(#SVGID_00000010306450540287297190000001609036997789902226_);}
	.st3{fill:#737373;}
</style>
<radialGradient id="SVGID_1_" cx="203.3402" cy="1123.6163" r="0.4542" gradientTransform="matrix(-346.4626 -399.8405 -287.7029 249.2952 394241.2188 -198190.9844)" gradientUnits="userSpaceOnUse">
	<stop  offset="0" style="stop-color:#00CACC"/>
	<stop  offset="1" style="stop-color:#048FCE"/>
</radialGradient>
<path class="st0" d="M382.18,436.12c-8.57,1-15.11,7.96-15.72,16.74c-0.26,3.78-0.18,4.04,8.4,26.11
	c19.51,50.2,24.24,62.29,25.03,63.99c1.93,4.12,4.63,7.99,8.02,11.47c2.6,2.67,4.31,4.1,7.2,6.04c5.09,3.4,7.62,4.34,27.42,10.2
	c19.29,5.71,29.83,9.51,38.92,14.02c11.77,5.84,19.98,12.48,25.17,20.37c3.73,5.66,7.03,15.8,8.46,26.01
	c0.56,3.99,0.57,12.81,0.01,16.42c-1.21,7.83-3.63,14.39-7.33,19.88c-1.97,2.92-1.28,2.43,1.58-1.13
	c8.1-10.07,16.35-27.28,20.56-42.89c5.09-18.89,5.79-39.17,1.99-58.37c-7.39-37.39-30.99-69.65-64.23-87.8
	c-2.09-1.14-10.04-5.31-20.83-10.92c-1.64-0.85-3.87-2.02-4.96-2.59c-1.09-0.57-3.32-1.74-4.96-2.59
	c-1.64-0.85-6.35-3.31-10.47-5.45c-4.12-2.15-8.73-4.55-10.25-5.34c-4.62-2.41-7.72-4.03-10.03-5.24
	c-10.69-5.59-15.21-7.86-16.5-8.25c-1.35-0.41-4.79-0.94-5.65-0.87C383.83,435.93,383.01,436.03,382.18,436.12z"/>
<radialGradient id="SVGID_00000088091141333223451210000014465640520274764713_" cx="202.9399" cy="1123.1409" r="0.4542" gradientTransform="matrix(526.0025 -225.395 -375.6281 -876.6003 315403.3438 1030992.375)" gradientUnits="userSpaceOnUse">
	<stop  offset="0" style="stop-color:#00BBEC"/>
	<stop  offset="1" style="stop-color:#2756A9"/>
</radialGradient>
<path style="fill:url(#SVGID_00000088091141333223451210000014465640520274764713_);" d="M405.48,623.54
	c-0.59,0.35-1.42,0.86-1.85,1.13c-0.42,0.27-1.37,0.86-2.09,1.3c-2.67,1.64-9.77,6.01-15.87,9.78c-4.01,2.47-4.6,2.84-9.7,6
	c-1.82,1.13-3.75,2.32-4.3,2.64c-0.55,0.33-2.88,1.76-5.18,3.19c-2.3,1.43-6.32,3.91-8.93,5.51c-2.61,1.6-7.27,4.48-10.36,6.39
	c-3.09,1.91-7.16,4.42-9.04,5.57c-1.88,1.15-3.61,2.26-3.86,2.47c-0.36,0.31-17.07,10.66-25.46,15.77
	c-6.37,3.88-13.74,6.47-21.28,7.49c-3.51,0.47-10.16,0.48-13.66,0c-9.49-1.28-18.24-4.82-25.73-10.41
	c-2.94-2.19-8.47-7.72-10.58-10.58c-4.98-6.73-8.21-13.94-9.88-22.11c-0.38-1.88-0.75-3.47-0.81-3.53
	c-0.16-0.16,0.13,2.68,0.63,6.39c0.53,3.86,1.66,9.44,2.87,14.22c9.39,36.95,36.11,67,72.29,81.3c10.42,4.12,20.93,6.71,32.37,7.98
	c4.3,0.48,16.46,0.67,20.95,0.33c20.57-1.56,38.48-7.61,56.85-19.22c1.64-1.03,4.71-2.97,6.83-4.31c2.12-1.34,4.8-3.03,5.95-3.77
	c1.15-0.74,2.54-1.61,3.09-1.94c0.55-0.33,1.64-1.01,2.42-1.52c0.79-0.51,4.16-2.64,7.49-4.74l13.33-8.42l4.58-2.89l0.16-0.1
	l0.5-0.32l0.24-0.15l3.37-2.13l11.65-7.36c14.84-9.32,19.26-12.6,26.16-19.35c2.87-2.81,7.21-7.62,7.42-8.23
	c0.04-0.12,0.81-1.31,1.71-2.64c3.65-5.4,6.08-12.01,7.29-19.81c0.56-3.61,0.55-12.43-0.01-16.42c-1.09-7.72-3.55-16.47-6.21-22.04
	c-4.36-9.14-13.64-17.44-26.98-24.13c-3.68-1.85-7.49-3.54-7.91-3.51c-0.2,0.01-12.61,7.6-27.59,16.86
	c-14.97,9.26-27.96,17.3-28.87,17.87c-0.91,0.56-2.47,1.52-3.47,2.12L405.48,623.54z"/>
<linearGradient id="SVGID_00000137847852183525930770000000597152534212814747_" gradientUnits="userSpaceOnUse" x1="280.42" y1="756.5583" x2="280.42" y2="354.8546" gradientTransform="matrix(1 0 0 -1 0 1046.0048)">
	<stop  offset="0" style="stop-color:#00BBEC"/>
	<stop  offset="1" style="stop-color:#2756A9"/>
</linearGradient>
<path style="fill:url(#SVGID_00000137847852183525930770000000597152534212814747_);" d="M226.7,579.1l0.06,64.52l0.84,3.75
	c2.61,11.71,7.14,20.16,15,28.01c3.7,3.69,6.53,5.91,10.54,8.29c8.48,5.02,17.61,7.5,27.61,7.49c10.47-0.01,19.54-2.62,28.87-8.33
	c1.58-0.96,7.75-4.76,13.72-8.45l10.85-6.7v-76.55v-76.55l0-70.03c0-44.68-0.08-71.21-0.23-73.3c-0.89-13.08-6.36-25.11-15.56-34.2
	c-2.82-2.79-5.24-4.66-12.42-9.6c-3.58-2.46-10.12-6.97-14.55-10.02c-4.42-3.05-11.71-8.07-16.2-11.16
	c-4.49-3.09-10.88-7.5-14.22-9.8c-6.94-4.79-7.49-5.12-9.59-5.87c-2.73-0.98-5.62-1.34-8.38-1.04c-8.02,0.87-14.44,6.66-16.11,14.53
	c-0.26,1.22-0.31,17.52-0.31,105.97l0,104.53h-0.01L226.7,579.1z"/>
<path class="st3" d="M677.67,658V384.77h86.77c26.42,0,47.44,5.78,62.86,17.35c15.42,11.57,23.14,26.61,23.14,45.12
	c0,15.43-4.43,28.92-13.11,40.49c-9.28,11.74-22.03,20.24-36.44,24.3v0.77c18.9,2.12,33.74,9.06,44.93,21.02
	c11.38,11.57,16.97,27,16.97,45.7c0,23.33-9.26,42.42-27.58,56.69C816.88,650.48,793.56,658,765.4,658H677.67z M722.98,421.21v77.71
	h29.31c15.81,0,28.15-3.86,37.02-10.99c9.06-7.71,13.49-18.13,13.49-31.62c0-23.52-15.62-35.09-46.85-35.09H722.98z M722.98,535.36
	v86.38h38.57c16.96,0,30.08-3.86,39.14-11.57c9.26-7.91,13.89-18.7,13.89-32.39c0-28.35-19.48-42.42-58.81-42.42H722.98z
	 M918.12,421.99c-7.14,0-13.5-2.51-18.51-7.13c-5.21-4.63-7.71-10.61-7.71-17.93c0-7.33,2.51-13.3,7.71-18.13
	c5.21-4.82,11.38-7.13,18.7-7.13s13.69,2.31,18.9,7.13c5.21,4.82,7.71,10.99,7.71,18.13c0,6.94-2.51,12.73-7.71,17.74
	C932,419.48,925.64,421.99,918.12,421.99z M940.1,658h-44.15V462.86h44.35L940.1,658z M1158.96,658h-44.16V548.09
	c0-36.64-12.92-54.76-38.56-54.76c-13.5,0-24.68,5.21-33.55,15.43c-8.93,10.6-13.6,24.14-13.11,37.99V658h-44.35V462.86h44.35v32.39
	h0.77c6.04-11.46,15.16-20.99,26.34-27.54c11.18-6.54,23.96-9.83,36.9-9.48c21.21,0,37.41,6.94,48.59,20.83
	c11.18,13.69,16.78,33.55,16.78,59.77V658z M1377.81,642.38c0,71.54-35.86,107.4-107.98,107.4c-22.83,0.52-45.5-3.82-66.52-12.73
	v-40.49c21.21,12.34,41.65,18.32,60.74,18.32c46.28,0,69.61-22.75,69.61-68.45v-21.21h-0.77c-6.41,11.75-15.98,21.47-27.64,28.05
	c-11.65,6.58-24.93,9.75-38.3,9.17c-10.91,0.35-21.76-1.8-31.72-6.27c-9.96-4.48-18.76-11.17-25.74-19.57
	c-15.37-19.99-23.09-44.81-21.79-69.99c0-33.17,7.71-59.39,23.52-79.06c15.81-19.67,37.02-29.31,64.4-29.31
	c25.64,0,44.74,10.61,57.27,31.62h0.77v-27H1378L1377.81,642.38z M1334.04,568.72v-25.45c0-13.69-4.63-25.45-13.69-35.09
	c-4.27-4.74-9.51-8.5-15.37-11.03c-5.85-2.53-12.19-3.76-18.56-3.62c-16.78,0-29.89,6.36-39.34,18.7
	c-10.33,15.25-15.35,33.48-14.27,51.87c0,19.28,4.63,34.52,13.49,46.08c9.26,11.57,21.21,17.16,36.25,17.16
	c15.43,0,27.77-5.59,37.22-16.39c9.64-11.18,14.27-25.07,14.27-42.42V568.72z"/>
</svg>
